<mxfile host="app.diagrams.net" modified="2022-03-29T00:59:14.150Z" agent="5.0 (Macintosh; Intel Mac OS X 10_15_7) AppleWebKit/537.36 (KHTML, like Gecko) Chrome/99.0.4844.83 Safari/537.36" etag="JEdEVEkZf9-wAlNV7Wo4" version="17.1.2" type="github">
  <diagram id="XlQdgXLShERvVQpdOtlp" name="Page-1">
    <mxGraphModel dx="778" dy="343" grid="1" gridSize="10" guides="1" tooltips="1" connect="1" arrows="1" fold="1" page="1" pageScale="1" pageWidth="850" pageHeight="1100" math="0" shadow="0">
      <root>
        <mxCell id="0" />
        <mxCell id="1" parent="0" />
        <mxCell id="nNgreJWrxfN4fD4Ae-On-37" value="" style="verticalLabelPosition=bottom;verticalAlign=top;html=1;shape=mxgraph.basic.rect;fillColor2=none;strokeWidth=1;size=20;indent=5;rounded=1;labelBorderColor=none;fontSize=7;fillColor=none;" parent="1" vertex="1">
          <mxGeometry x="520" y="113.75" width="130" height="100" as="geometry" />
        </mxCell>
        <mxCell id="nNgreJWrxfN4fD4Ae-On-38" value="" style="verticalLabelPosition=bottom;verticalAlign=top;html=1;shape=mxgraph.basic.rect;fillColor2=none;strokeWidth=1;size=20;indent=5;rounded=1;labelBorderColor=none;fontSize=7;fillColor=none;" parent="1" vertex="1">
          <mxGeometry x="530" y="143.75" width="80" height="60" as="geometry" />
        </mxCell>
        <mxCell id="2ibzQ1A0kpAbdHHjTMDV-27" value="" style="edgeStyle=orthogonalEdgeStyle;rounded=1;orthogonalLoop=1;jettySize=auto;html=1;strokeColor=#383838;" edge="1" parent="1" source="nNgreJWrxfN4fD4Ae-On-46" target="2ibzQ1A0kpAbdHHjTMDV-26">
          <mxGeometry relative="1" as="geometry" />
        </mxCell>
        <mxCell id="nNgreJWrxfN4fD4Ae-On-46" value="" style="sketch=0;points=[[0,0,0],[0.25,0,0],[0.5,0,0],[0.75,0,0],[1,0,0],[0,1,0],[0.25,1,0],[0.5,1,0],[0.75,1,0],[1,1,0],[0,0.25,0],[0,0.5,0],[0,0.75,0],[1,0.25,0],[1,0.5,0],[1,0.75,0]];outlineConnect=0;fontColor=#232F3E;gradientColor=#F78E04;gradientDirection=north;fillColor=#D05C17;strokeColor=#ffffff;dashed=0;verticalLabelPosition=bottom;verticalAlign=top;align=center;html=1;fontSize=12;fontStyle=0;aspect=fixed;shape=mxgraph.aws4.resourceIcon;resIcon=mxgraph.aws4.ecr;rounded=1;labelBorderColor=none;" parent="1" vertex="1">
          <mxGeometry x="390" y="162" width="30" height="30" as="geometry" />
        </mxCell>
        <mxCell id="nNgreJWrxfN4fD4Ae-On-47" style="edgeStyle=orthogonalEdgeStyle;rounded=1;orthogonalLoop=1;jettySize=auto;html=1;fontSize=9;" parent="1" source="nNgreJWrxfN4fD4Ae-On-48" edge="1">
          <mxGeometry relative="1" as="geometry">
            <mxPoint x="189.5" y="180.5" as="targetPoint" />
          </mxGeometry>
        </mxCell>
        <mxCell id="nNgreJWrxfN4fD4Ae-On-48" value="" style="sketch=0;outlineConnect=0;fontColor=#232F3E;gradientColor=none;fillColor=#232F3D;strokeColor=none;dashed=0;verticalLabelPosition=bottom;verticalAlign=top;align=center;html=1;fontSize=12;fontStyle=0;aspect=fixed;pointerEvents=1;shape=mxgraph.aws4.user;rounded=1;labelBorderColor=none;" parent="1" vertex="1">
          <mxGeometry x="129.5" y="172" width="17" height="17" as="geometry" />
        </mxCell>
        <mxCell id="nNgreJWrxfN4fD4Ae-On-49" value="Service repo" style="text;html=1;resizable=0;autosize=1;align=center;verticalAlign=middle;points=[];fillColor=none;strokeColor=none;rounded=0;dashed=1;labelBorderColor=none;fontSize=6;" parent="1" vertex="1">
          <mxGeometry x="189.5" y="203.75" width="50" height="10" as="geometry" />
        </mxCell>
        <mxCell id="nNgreJWrxfN4fD4Ae-On-50" value="Jenkins" style="text;html=1;resizable=0;autosize=1;align=center;verticalAlign=middle;points=[];fillColor=none;strokeColor=none;rounded=0;dashed=1;labelBorderColor=none;fontSize=6;" parent="1" vertex="1">
          <mxGeometry x="284.25" y="199" width="40" height="10" as="geometry" />
        </mxCell>
        <mxCell id="nNgreJWrxfN4fD4Ae-On-51" value="ECR" style="text;html=1;resizable=0;autosize=1;align=center;verticalAlign=middle;points=[];fillColor=none;strokeColor=none;rounded=0;dashed=1;labelBorderColor=none;fontSize=7;" parent="1" vertex="1">
          <mxGeometry x="390" y="193.75" width="30" height="10" as="geometry" />
        </mxCell>
        <mxCell id="nNgreJWrxfN4fD4Ae-On-52" value="" style="shape=image;html=1;verticalAlign=top;verticalLabelPosition=bottom;labelBackgroundColor=#ffffff;imageAspect=0;aspect=fixed;image=https://cdn1.iconfinder.com/data/icons/social-media-2106/24/social_media_social_media_logo_docker-128.png;rounded=1;dashed=1;labelBorderColor=none;fontSize=6;strokeColor=#272829;strokeWidth=6;" parent="1" vertex="1">
          <mxGeometry x="350" y="173.75" width="20" height="20" as="geometry" />
        </mxCell>
        <mxCell id="nNgreJWrxfN4fD4Ae-On-59" value="" style="sketch=0;html=1;dashed=0;whitespace=wrap;fillColor=#2875E2;strokeColor=#ffffff;points=[[0.005,0.63,0],[0.1,0.2,0],[0.9,0.2,0],[0.5,0,0],[0.995,0.63,0],[0.72,0.99,0],[0.5,1,0],[0.28,0.99,0]];shape=mxgraph.kubernetes.icon;prIcon=pod;rounded=1;labelBorderColor=none;fontSize=9;" parent="1" vertex="1">
          <mxGeometry x="545" y="169.25" width="20" height="15.5" as="geometry" />
        </mxCell>
        <mxCell id="nNgreJWrxfN4fD4Ae-On-60" value="" style="sketch=0;points=[[0,0,0],[0.25,0,0],[0.5,0,0],[0.75,0,0],[1,0,0],[0,1,0],[0.25,1,0],[0.5,1,0],[0.75,1,0],[1,1,0],[0,0.25,0],[0,0.5,0],[0,0.75,0],[1,0.25,0],[1,0.5,0],[1,0.75,0]];outlineConnect=0;fontColor=#232F3E;gradientColor=#F78E04;gradientDirection=north;fillColor=#D05C17;strokeColor=#ffffff;dashed=0;verticalLabelPosition=bottom;verticalAlign=top;align=center;html=1;fontSize=12;fontStyle=0;aspect=fixed;shape=mxgraph.aws4.resourceIcon;resIcon=mxgraph.aws4.eks;rounded=1;labelBorderColor=none;" parent="1" vertex="1">
          <mxGeometry x="520" y="113.75" width="20" height="20" as="geometry" />
        </mxCell>
        <mxCell id="nNgreJWrxfN4fD4Ae-On-61" value="" style="sketch=0;points=[[0,0,0],[0.25,0,0],[0.5,0,0],[0.75,0,0],[1,0,0],[0,1,0],[0.25,1,0],[0.5,1,0],[0.75,1,0],[1,1,0],[0,0.25,0],[0,0.5,0],[0,0.75,0],[1,0.25,0],[1,0.5,0],[1,0.75,0]];outlineConnect=0;fontColor=#232F3E;gradientColor=#F78E04;gradientDirection=north;fillColor=#D05C17;strokeColor=#ffffff;dashed=0;verticalLabelPosition=bottom;verticalAlign=top;align=center;html=1;fontSize=12;fontStyle=0;aspect=fixed;shape=mxgraph.aws4.resourceIcon;resIcon=mxgraph.aws4.ec2;rounded=1;labelBorderColor=none;" parent="1" vertex="1">
          <mxGeometry x="530" y="143.75" width="15" height="15" as="geometry" />
        </mxCell>
        <mxCell id="nNgreJWrxfN4fD4Ae-On-64" value="podA" style="text;html=1;resizable=0;autosize=1;align=center;verticalAlign=middle;points=[];fillColor=none;strokeColor=none;rounded=0;shadow=0;dashed=1;dashPattern=1 2;labelBorderColor=none;fontSize=7;" parent="1" vertex="1">
          <mxGeometry x="540" y="184" width="30" height="10" as="geometry" />
        </mxCell>
        <mxCell id="nNgreJWrxfN4fD4Ae-On-66" value="&lt;font style=&quot;font-size: 5px&quot;&gt;&amp;nbsp; &amp;nbsp;EC2&lt;/font&gt;" style="text;html=1;resizable=0;autosize=1;align=left;verticalAlign=middle;points=[];fillColor=none;strokeColor=none;rounded=0;shadow=0;dashed=1;dashPattern=1 2;labelBorderColor=none;fontSize=7;" parent="1" vertex="1">
          <mxGeometry x="550" y="143.75" width="30" height="10" as="geometry" />
        </mxCell>
        <mxCell id="nNgreJWrxfN4fD4Ae-On-67" value="&lt;font style=&quot;font-size: 5px&quot;&gt;EKS Cluster&lt;/font&gt;" style="text;html=1;resizable=0;autosize=1;align=center;verticalAlign=middle;points=[];fillColor=none;strokeColor=none;rounded=0;shadow=0;dashed=1;dashPattern=1 2;labelBorderColor=none;fontSize=7;" parent="1" vertex="1">
          <mxGeometry x="540" y="113.75" width="40" height="10" as="geometry" />
        </mxCell>
        <mxCell id="nNgreJWrxfN4fD4Ae-On-70" value="Builds an image&amp;nbsp;" style="text;html=1;resizable=0;autosize=1;align=center;verticalAlign=middle;points=[];fillColor=none;strokeColor=none;rounded=0;shadow=0;dashed=1;dashPattern=1 2;labelBorderColor=none;fontSize=5;rotation=0;" parent="1" vertex="1">
          <mxGeometry x="326.25" y="164" width="50" height="10" as="geometry" />
        </mxCell>
        <mxCell id="2ibzQ1A0kpAbdHHjTMDV-24" style="edgeStyle=orthogonalEdgeStyle;rounded=1;orthogonalLoop=1;jettySize=auto;html=1;entryX=0;entryY=0.5;entryDx=0;entryDy=0;entryPerimeter=0;strokeColor=#383838;" edge="1" parent="1" source="2ibzQ1A0kpAbdHHjTMDV-2" target="nNgreJWrxfN4fD4Ae-On-46">
          <mxGeometry relative="1" as="geometry" />
        </mxCell>
        <mxCell id="2ibzQ1A0kpAbdHHjTMDV-2" value="" style="shape=image;verticalLabelPosition=bottom;verticalAlign=top;imageAspect=0;aspect=fixed;image=data:image/svg+xml,PHN2ZyB4bWxucz0iaHR0cDovL3d3dy53My5vcmcvMjAwMC9zdmciIGlkPSJJY29ucyIgdmlld0JveD0iMCAwIDY0IDY0Ij48ZGVmcz48c3R5bGU+LmNscy01e2ZpbGw6IzZkNmI2ZH0uY2xzLTh7ZmlsbDojZjJlMGM5fS5jbHMtMTF7ZmlsbDojZTUzYjM5fS5jbHMtMTJ7ZmlsbDojZWZkZGM3fS5jbHMtMjJ7ZmlsbDojZjVlMmNifTwvc3R5bGU+PC9kZWZzPjxwYXRoIGQ9Ik01Ni42MiA0OS4wN2MtLjk1LTEtMi0xLjgyLTMtMi43M2ExLjc2IDEuNzYgMCAwMS0uNDItMi40MWM0LjUyLTguMzUgNS4wNy0xNy4zMSAzLjgxLTI2LjQ4QzU1Ljc4IDguODIgNDcuNjguOTEgMzguNzguMzFhNTUuNCA1NS40IDAgMDAtNy41NC4xNWMtNS42MyAxLTEwLjUgMy41OC0xNS4xNyA2LjY2YTkuMDYgOS4wNiAwIDAwLTMuNjYgNC43MWMtLjEuMy0uMjMuNy0uNDYuODQtMi41IDEuNDEtMy4xNiAzLjgyLTMuNDIgNi4zM2EyMy45MiAyMy45MiAwIDAwLjEgNC4zMSA0Ljg4IDQuODggMCAwMS0uNDggMi43Yy0xLjM4IDIuODctLjkyIDUuNzkuMjEgOC42NGE3LjYgNy42IDAgMDA1LjIgNC44OSAxLjQyIDEuNDIgMCAwMS43NS43OGMuNjMgMS41MSAxLjEgMy4wOCAxLjggNC41NnMuNzQgMi4wNy0uODIgM0MxMS41NiA1MC4xOSA3Ljc4IDUyLjQgNCA1NC42N2ExMS4wNyAxMS4wNyAwIDAwLTEuNiAxLjQ2djEuNDlDMy4xIDU5LjU5IDQgNjIgNC43IDY0aDUyLjU1YzEtMy4xNCAyLTYuNzIgMy05Ljg2di0xYy0xLjI1LTEuMzYtMi4zNy0yLjc2LTMuNjMtNC4wN3ptLTEzLjgzIDcuMzZBMS40MSAxLjQxIDAgMDE0MS40MyA1OGMtLjc2LjA4LTEuMTYtLjYyLTEuMTktMi4zNWEzLjE3IDMuMTcgMCAwMTEuMTctLjY1Yy44OSAwIDEuMzUuNiAxLjM4IDEuNDN6IiBmaWxsPSIjMjgyNDI1Ii8+PHBhdGggZD0iTTQ4LjM0IDEzLjk1YTEwIDEwIDAgMDEzLS4zNCA0Ljg4IDQuODggMCAwMTQuMTcgNC4yMWMxLjUzIDEwLjA4LjkxIDE5Ljg5LTUuOTUgMjgtNC4xNyA1LTEyLjI4IDcuNDUtMTkuMSAxLjRhNTYuMzEgNTYuMzEgMCAwMS00Ljc1LTUuMzdjLS4yOC0uMzMtLjU1LS42Ny0xLTEuMjEuNTIgMyAyLjkxIDYgNy4yIDkuNDFhMTUuMzIgMTUuMzIgMCAwMS0zLjQ2IDEuMiAzMC40NSAzMC40NSAwIDAxLTUuMTUtLjUxYy0zLjU3LTMuOC00LjEtOC4yMy00LjUyLTEzLjM5IDAtLjQ4LS42Mi0uOTItLjk0LTEuMzhhNS4yMSA1LjIxIDAgMDAtMS40Ny40Yy0yLjA4IDEuMzEtMy42OSAxLTUuMjItMS4wOWwtLjI1LS4zLS45LTEuMWMuMTEtLjMzLjA2LTEuODIuMTEtMi4xNi4xOS0xLjQ1IDEuMDctMSAxLjIzLTIuNWwxLjIzLS40OWMtLjQ4IDIuODItLjM3IDMuNzkuNDYgNC43M2EyMC43MSAyMC43MSAwIDAxLjItMi43Yy4wOS0uNDUuNTMtLjg0LjgxLTEuMjZhNi44MiA2LjgyIDAgMDExLjE2LjkxIDEzLjY2IDEzLjY2IDAgMDExIDEuN2MuMzUtMS43Mi0uODctNC4yMS0xLjY5LTUuMjkuNDkgMCAxLjY2IDEuMzcgMi4xNSAxLjM5bC4xLjM1LjQ1IDEuMjZjLjM2IDAgLjM0LjE4Ljc0LjE2IDEuODQtLjEyIDIuNzQtLjggMi4zLTIuNTItMS4yNS01LjA2LS4wNi05Ljg3LS4yNS0xMS44Ny4zOC0uNTcuOTQtMy4wNSAxLjI1LTMuNjYgMS43NS0zLjQgNC41MS01LjA3IDgtNi43MiA1LTIuMzggOC40Ny0xLjcxIDEzLjg4LS44NC40Ni4wNyAzLjA3IDEuMTEgMy41NCAxLjE1YTQ3LjQ0IDQ3LjQ0IDAgMDE1LjI0IDUuMjNjLTEuNjkuMzEtMi42Mi0uNy0zIDEtLjIuNjUtMS4zOSAyLjA4LS41NyAyLjJ6bTQuMTggNmMtLjI4LjA2Ljk1IDMuMTYgMS4xNyAzLjdsLTEuODEuMjktMS44LjI2LS4yMy4zNmMuNDUuNDQuODIgMS4wNiAxLjM1IDEuMjggMSAuNDMgMy4xMS0uMzQgMy44LTEuMjYuMTQtLjE4LjMxLS41LjI0LS42NC0uODItMS42NS0xLjY5LTMuMjctMi42NC01LjF6bS0yNS43Ny0yLjI4bC41NCAxYTMgMyAwIDAwLjMxLS4yOSAyLjQxIDIuNDEgMCAwMC4xOC0uMzJjMS4yMi0yLjQ1IDMtNCA1LjkzLTMuNjMgMSAuMTIuODEtLjYxLjQ4LTEuMTJhNC43OSA0Ljc5IDAgMDAtMS0uODhjLTMuMTEtMS43OS03LjI3IDQuNC02LjQ0IDUuMjR6bTEwLjQ0IDUuN2wuODEgMS4xNGMtMS41NSAxLTMuMS4wOC00LjU3LjIxLS40NyAxLS4xMiAxLjcuNzcgMS44NWExMC4yNyAxMC4yNyAwIDAwMy43NS4xMWMxLjcyLS4zOCAyLTIgLjg1LTMuMzJhOS45MSA5LjkxIDAgMDEtMS4yOC0xLjY0Yy0uNDUtLjc4LS43OS0xLjYzLTEuMjYtMi42MWwtLjI1LjhjLS44My4zMS4zNCAzLjU0IDEuMTkgMy40NnpNNDcuNDYgNDNjLTIuMTUgMC00LjA1LjEtNS45MyAwLTIuMzctLjE1LTQuNTctLjc2LTUuODgtMy4wNi0uMTItLjIyLS42OS0uMTgtMS4yNS0uMyAyLjExIDMuMzYgNC4yMyA2LjA3IDguNDIgNS40MSAxLjYyLS4zMSAzLjQ0LS4wNSA0LjY0LTIuMDV6bS0xLjU4LTQuMjJsLTkuOC0xYzIuNjggMyA2LjE5IDMuMTEgOS44IDMuMjR6bTEgMS45MWE2LjU3IDYuNTcgMCAwMDYuMjUtNC41OGwtNi4yNSAyLjU0eiIgZmlsbD0iI2VlZDRiNSIvPjxwYXRoIGQ9Ik0yOSA2MS44OEg5LjE2Yy0uMTktMS4wOS0uMy0yLjIxLS42LTMuMjctLjIyLS43OSAwLTEuMTIuNzItMS40MSAyLjY4LTEuMTYgNS4zNi0yLjM0IDgtMy41NSAxLS40NCAxLjg2LTEgMi43OS0xLjUgMS44NiAxLjE3IDMuNjcgMi40NCA1LjYxIDMuNDcgMS4yNC42NiAyLjM2IDEuMTIgMi40MyAyLjgzYTE3IDE3IDAgMDAuODkgMy40M3oiIGZpbGw9IiMzMzUwNjEiLz48cGF0aCBkPSJNNDYuNiA1LjUyYy0uNDcgMC0uOTQgMC0xLjQxLS4xMWEyNiAyNiAwIDAwLTE1LjY4IDEuODRBMTYuNjQgMTYuNjQgMCAwMDIxLjc3IDE1Yy0uMzEuNi0xLjM5IDEuNDgtMS43NyAyLS4xMS0xLjMuMDctMi43IDAtNGEzLjM0IDMuMzQgMCAwMS41NC0xLjUyIDE2LjQ5IDE2LjQ5IDAgMDEyLjI5LTIuODljMi44NS0yLjYgNi00Ljk1IDkuNzktNS43OSA0Ljk2LTEuMDkgOS42Mi4yNiAxMy45OCAyLjcyeiIgZmlsbD0iI2YzZTFjYSIvPjxwYXRoIGNsYXNzPSJjbHMtNSIgZD0iTTE5LjA2IDEzLjk1QTQwLjE5IDQwLjE5IDAgMDExOSAxOWMtLjQyIDIuNzktMSA0IC4yMSA3Ljc0LjEuMzItLjE2Ljc3LS4yOCAxLjI5LS4zNC0uMjUtLjQ0LS4yOC0uNDYtLjM0LTEtMy40NS0zLTQuNTUtNy0zLjc3YTcuMjEgNy4yMSAwIDAxLjQ5LTUuMzhjMS4zNS0zLjAyIDQuMDQtNC4xNyA3LjEtNC41OXoiLz48cGF0aCBkPSJNMjAuMDggNTIuMTNjLS45My41LTEuODMgMS4wNy0yLjc5IDEuNS0yLjY2IDEuMjEtNS4zNCAyLjM5LTggMy41NS0uNjcuMjktLjk0LjYyLS43MiAxLjQxLjMgMS4wNi40MSAyLjE4LjYgMy4yN0g2LjY2Yy0uNS0xLjI2LTEuMDUtMi41MS0xLjQ3LTMuNzlhMS4zNCAxLjM0IDAgMDEuMzEtMS4xNyA1Mi43MyA1Mi43MyAwIDAxMTEtNyAxLjQ4IDEuNDggMCAwMTIgLjQzYy41NS42NyAxLjA4IDEuMiAxLjU4IDEuOHoiIGZpbGw9IiM0ODcwODkiLz48cGF0aCBkPSJNNTYuMjcgNjEuODlsLTMuNDctLjA2YzAtLjIgMC0uNDktLjA5LS41OS0xLjI1LTEuMDgtLjg2LTIuMzEtLjU2LTMuNjdhMTEuNjggMTEuNjggMCAwMC0uNTktNi40IDcuOCA3LjggMCAwMS44NC40NWMxLjggMS4yNSAzLjU5IDIuNTEgNS4zOCAzLjc3eiIgZmlsbD0iIzMzNGY2MCIvPjxwYXRoIGNsYXNzPSJjbHMtOCIgZD0iTTE3LjgxIDM2Yy4zMy40NiAxLjI0LjkgMS4yOCAxLjM4LjQyIDUuMTYgMS44NyA5LjcgNS40NCAxMy41QTUuNDkgNS40OSAwIDAxMTkuNjUgNDhjLTEuMjMtMi41NC0yLjE1LTUuMjMtMy4xNy03Ljg3YTIgMiAwIDAxLjUyLTIuMjcgNi4xNiA2LjE2IDAgMDAuODEtMS44NnoiLz48cGF0aCBkPSJNNTAuNDMgNTMuMTJjLjE0IDEuNjcuMzEgMy4zMy40IDUgMCAuNzYtLjQyIDEuMTItMS4yMSAxbC01LS43NmMtLjA4LS44NC0uNDYtMi4wNi41NS0yLjEyczEuMS0xLjggMS4xNS0yLjUzYy4xMi0xLjc0LjY4LTEuMiAyLjQ1LTEuNDQuNTYtLjA3IDEuMDkuOTQgMS42Ni44NXoiIGZpbGw9IiNjZjM3MzMiLz48cGF0aCBkPSJNMzQuMTYgNjIuNTNhMTMuNTkgMTMuNTkgMCAwMS0yLjI0LjYzIDMuOCAzLjggMCAwMS0xLjQtLjQyLjI1LjI1IDAgMDAtLjA2LS4xNWwtLjItMWEyNC44NiAyNC44NiAwIDAxLTEuMDktNS43NWMtLjA5LTEuMTEgMS4zOC0yLjIyIDIuMi0yLjJhMzcgMzcgMCAwMTQuODMuOTRjLjI5IDAgLjkxLjQyLjgzLjY5LS4zIDEtLjIxIDEuNTcuNDIgMS44YTEwLjU2IDEwLjU2IDAgMDAxLjkuODJjLS4yMi41Mi0uMyAxLjIzLS42OSAxLjUzLTEuNDQgMS4wOC0yLjk4IDIuMDctNC41IDMuMTF6IiBmaWxsPSIjZDEzODMzIi8+PHBhdGggY2xhc3M9ImNscy0xMSIgZD0iTTM5LjM3IDU3Ljg1YTEwLjc3IDEwLjc3IDAgMDEtMi0uMzZjLS42My0uMjMtMS4yNi0uNTgtMS0xLjU2YTEuMjcgMS4yNyAwIDAwLS42OC0xIDMxLjEzIDMxLjEzIDAgMDAtNC41MS0uNDVjLS44MyAwLTEuMiAxLTEuMSAyLjE0LjE0IDEuNjUuMTQgMy4zMi4yIDVhMTIuNCAxMi40IDAgMDEtMS4wOS03LjQ2Yy4yNy0xLjY3Ljk0LTIuMjEgMi41Mi0xLjcxczMuMzIgMS4yMiA0Ljk1IDEuOWMuODYuMzYgMS42Ny44NSAyLjgxIDEuNDRsLTIuMi45NHoiLz48cGF0aCBjbGFzcz0iY2xzLTEyIiBkPSJNMTYuNzIgMjguMTloLTEuNDhhOS4xNyA5LjE3IDAgMDAtMi0uNzcgMS42NCAxLjY0IDAgMDAtMS44NyAxLjg0Yy0uMTYgMS40Ni0uMzIgMi45Mi0uNSA0LjM3YTUuNzEgNS43MSAwIDAxLS4zMiAxQzkuNDYgMzIuODUgOC43MiAzMSA5LjQzIDI5YTYgNiAwIDAxMi4wOC0yLjc3YzIuMTgtMS41MyA0LjIyLS42NyA1LjIxIDEuOTZ6Ii8+PHBhdGggZD0iTTU3Ljc3IDU1LjM5Yy0xLjc5LTEuMjYtMy41OC0yLjUyLTUuMzgtMy43N2E3LjggNy44IDAgMDAtLjg0LS40NWwtMi4xMi0yLjA4IDEuNzctMS41NSAzIDIuNjlBMTggMTggMCAwMDU2LjA4IDUyYTMuMjggMy4yOCAwIDAxMS42OSAzLjM5eiIgZmlsbD0iIzQ3NmY4NyIvPjxwYXRoIGQ9Ik0xNi43OSAxMS4xOGwtMi42MyAxYzEuMzEtMy40OSA5LjQtOC42NyAxMS42NS03LjQ1bC0zLjI1IDJhMTEuNDUgMTEuNDUgMCAwMC01Ljc3IDQuNDV6IiBmaWxsPSIjZDNkMGNmIi8+PHBhdGggZD0iTTE5LjA2IDEzLjk1Yy0zLjA4LjQzLTUuNzUgMS41Ny03LjEzIDQuNTdhNy4yMSA3LjIxIDAgMDAtLjQ5IDUuMzhjLS4yMSAwLS41OSAwLS42Mi0uMDhBOC4zMiA4LjMyIDAgMDExNy40MiAxM2wxLjQ2LS4yMnoiIGZpbGw9IiNkY2Q5ZDgiLz48cGF0aCBjbGFzcz0iY2xzLTExIiBkPSJNNTAuNDMgNTMuMTJjLS41Ni4wOS0xLjEyLjE5LTEuNjkuMjYtMS43OC4yNC0xLjc3LjI0LTEuODkgMi0uMDUuNzMtLjE4IDEuNDQtMS4xIDEuNDlzLTEuMjEuNjYtMS4xMyAxLjVjLS4xNS0uNTUtLjU1LTEuMjEtLjM3LTEuNjNzLjkxLS43MyAxLjQ0LTEuMWMtLjU5LS4zMi0yLjE1LjQ1LTEuOTItMS40NyAxLjI3LS43MyAyLjY0LTEuNjQgNC4xMi0yLjMzczIuMTEtLjIxIDIuNTQgMS4yOHoiLz48cGF0aCBkPSJNNDEuODggNjEuODdDNDAuNCA2MCA0Mi43OCA2MCA0NC4xOSA2MGMxLjE1IDAgMS41NS44NyAxLjY2IDEuODMtLjYyLS4xMS0xLjIzLS4yNi0xLjg1LS4zM2EzLjgzIDMuODMgMCAwMC0xLjA1LjEzYy0uMzYuMDUtLjcyLjE1LTEuMDcuMjR6IiBmaWxsPSIjZjdmN2Y3Ii8+PHBhdGggZD0iTTQ2LjA5IDYxLjgyaC0uMjRjLS42NC0uMzYtMS4yNi0uNzMtMS45MS0xLjA2LTEuMjYtLjYzLTEuNzYtLjM1LTIuMDcgMS4xMWwtMS40My0uMDctLjg3LTEuNDRjLjc3LTEuMTkgMi4yLTEuMTUgMy4yNC0xLjE5UzQ1IDYwIDQ2LjA5IDYwLjV6IiBmaWxsPSIjZDdkNGQzIi8+PHBhdGggY2xhc3M9ImNscy01IiBkPSJNMTYuNzkgMTEuMThhMTEuNDUgMTEuNDUgMCAwMTUuNzctNC4zOSAxOS42OSAxOS42OSAwIDAxLTIuNjkgMy44N2MtLjY1LjU4LTIuMDMuMzQtMy4wOC41MnoiLz48cGF0aCBkPSJNMjggNTIuN2wtLjQxIDEuNzljLTIuNDYtLjEzLTQuNjEtMS4yNy00Ljg2LTIuNnoiIGZpbGw9IiNlOWU4ZTgiLz48cGF0aCBjbGFzcz0iY2xzLTgiIGQ9Ik00OC4zNCAxMy45NWMtLjgyLS4xMi0uODEtLjctLjY4LTEuM2EzLjY1IDMuNjUgMCAwMTMuMjMtMi45NWwxLjQ2IDEuNzRhMTYuNDEgMTYuNDEgMCAwMC0yLjYxLjM5IDIuMiAyLjIgMCAwMC0xLjQgMi4xMnoiLz48cGF0aCBkPSJNMzcuNzUgNTIuNjRsNi40My0uN2E0LjExIDQuMTEgMCAwMS02LjQzLjd6IiBmaWxsPSIjZGVjOGFkIi8+PHBhdGggY2xhc3M9ImNscy0xMSIgZD0iTTQwLjI0IDU1LjY3YTMuMTcgMy4xNyAwIDAxMS4xNy0uNjdjLjg5LS4wOSAxLjM1LjU1IDEuMzggMS4zOEExLjQxIDEuNDEgMCAwMTQxLjQzIDU4Yy0uNzYuMS0xLjE2LS41OS0xLjE5LTIuMzN6Ii8+PHBhdGggZD0iTTUyIDYyaC01YTIuMDcgMi4wNyAwIDAxMy4xNS0xLjczYy42NC4zIDEuMjkgMS4yNiAxLjg1IDEuNzN6IiBmaWxsPSIjN2VhYWJkIi8+PHBhdGggY2xhc3M9ImNscy0xMiIgZD0iTTEwLjg2IDM1bC4yNS4zem01Ljk1LTYuNDJsLS4xLS4zNXoiLz48cGF0aCBkPSJNNDEuNjggMzRjLjM2IDEuNTguNjggMiAyLjEyIDEuN2EzNi42OCAzNi42OCAwIDAwNi4xMi0yLjE3Yy44OS0uMzkuODEtMS42OCAwLTIuNzItMS4yNi0xLjYzLTIuNi0zLjItMy44LTQuODdhOC4zMSA4LjMxIDAgMDEtMS43NC01Ljc1Yy4zMy4yOS42Mi40MS42OS42MiAxLjI2IDMuNjEgMy44MiA2LjMyIDYuMzYgOWEyLjkxIDIuOTEgMCAwMS0uNSA0LjYzYy0yLjYgMS42LTUuMzEgMi44LTguNDcgMi42MS0xLjEyLS4wNy0xLjM5LS44NS0xLjQ5LTEuNjQtLjA4LS42My0uNDktMS41NS42NC0xLjg0eiIgZmlsbD0iIzJiMjcyNiIvPjxwYXRoIGNsYXNzPSJjbHMtMjIiIGQ9Ik0zNiAxOS45bDEuMjQgMy40N2ExMS42IDExLjYgMCAwMS0yLjU1LjIgMi4wNiAyLjA2IDAgMDEtMS40OC0xIDEuODggMS44OCAwIDAxLjQ5LTEuNjkgOSA5IDAgMDEyLjMtLjk4eiIvPjxwYXRoIGNsYXNzPSJjbHMtMTIiIGQ9Ik0zMy4yMSAxMi40NWMtMi41NS0uNzEtNi4wOSAyLjI3LTYuNDUgNS4yMi0uODMtLjg0LS41MS0xLjc3LS4xNC0yLjY0YTYuMzcgNi4zNyAwIDAxNC4wOS0zLjY2IDEuODggMS44OCAwIDAxMi41IDEuMDh6Ii8+PHBhdGggY2xhc3M9ImNscy0yMiIgZD0iTTUyLjUyIDE5LjlsLjYxIDIuMzVjLS4wOC4wOS0uMTQuMjMtLjI0LjI3LS44LjMyLTEuNjMgMS4xMS0yLjQzLjE5LS41OC0uNjYuMTUtMi4xIDEuMjQtMi42MmE0IDQgMCAwMS44Mi0uMTl6TTMyLjQ0IDQxLjE1YTE0LjE2IDE0LjE2IDAgMDEwLTIuNzljMC0uMjIgMS0uMjggMS44Ni0uNDlMMzMgNDEuMTh6TTQxLjY4IDM0bC0uMS0uNGE3LjMxIDcuMzEgMCAwMS4yOS0xLjU2IDEuMjUgMS4yNSAwIDAxLjgxLS43IDEgMSAwIDAxLjguNTkgMS4yOSAxLjI5IDAgMDEtLjMgMS4wNiA5LjI4IDkuMjggMCAwMS0xLjUgMS4wMXoiLz48L3N2Zz4=" vertex="1" parent="1">
          <mxGeometry x="282.25" y="155" width="44" height="44" as="geometry" />
        </mxCell>
        <mxCell id="2ibzQ1A0kpAbdHHjTMDV-4" value="" style="shape=image;html=1;verticalAlign=top;verticalLabelPosition=bottom;labelBackgroundColor=#ffffff;imageAspect=0;aspect=fixed;image=https://cdn3.iconfinder.com/data/icons/travelling-icon-set/800/helm-128.png" vertex="1" parent="1">
          <mxGeometry x="319.5" y="250" width="30.5" height="30.5" as="geometry" />
        </mxCell>
        <mxCell id="2ibzQ1A0kpAbdHHjTMDV-35" style="edgeStyle=orthogonalEdgeStyle;rounded=1;orthogonalLoop=1;jettySize=auto;html=1;entryX=0.5;entryY=0;entryDx=0;entryDy=0;strokeColor=#383838;" edge="1" parent="1" source="2ibzQ1A0kpAbdHHjTMDV-15" target="2ibzQ1A0kpAbdHHjTMDV-2">
          <mxGeometry relative="1" as="geometry" />
        </mxCell>
        <mxCell id="2ibzQ1A0kpAbdHHjTMDV-15" value="" style="shape=image;verticalLabelPosition=bottom;labelBackgroundColor=default;verticalAlign=top;aspect=fixed;imageAspect=0;image=data:image/png,iVBORw0KGgoAAAANSUhEUgAAAP8AAACZCAYAAADgpeyNAAABQ2lDQ1BJQ0MgUHJvZmlsZQAAKJFjYGASSCwoyGFhYGDIzSspCnJ3UoiIjFJgf8bAzCDDwMEgxsCSmFxc4BgQ4ANUwgCjUcG3awyMIPqyLsgsyXPef6UXGu7+UfmLd8r59ysx1aMArpTU4mQg/QeIk5ILikoYGBgTgGzl8pICELsFyBYpAjoKyJ4BYqdD2GtA7CQI+wBYTUiQM5B9BcgWSM5ITAGynwDZOklI4ulIbKi9IMDhEaBgZF6ZQcCppIOS1IoSEO2cX1BZlJmeUaLgCAyhVAXPvGQ9HQUjAyMjBgZQeENUfw4ChyOj2D6EWP4SBgaLbwwMzBMRYklTGBi2tzEwSNxCiKnMY2DgB4bVtkMFiUWJcAcwfmMpTjM2grB57BkYWO/+//9Zg4GBfSIDw9+J////Xvz//9/FQPNvMzAcqAQAJMRhC1j6D3IAAABWZVhJZk1NACoAAAAIAAGHaQAEAAAAAQAAABoAAAAAAAOShgAHAAAAEgAAAESgAgAEAAAAAQAAAP+gAwAEAAAAAQAAAJkAAAAAQVNDSUkAAABTY3JlZW5zaG90B3awrQAAAdZpVFh0WE1MOmNvbS5hZG9iZS54bXAAAAAAADx4OnhtcG1ldGEgeG1sbnM6eD0iYWRvYmU6bnM6bWV0YS8iIHg6eG1wdGs9IlhNUCBDb3JlIDYuMC4wIj4KICAgPHJkZjpSREYgeG1sbnM6cmRmPSJodHRwOi8vd3d3LnczLm9yZy8xOTk5LzAyLzIyLXJkZi1zeW50YXgtbnMjIj4KICAgICAgPHJkZjpEZXNjcmlwdGlvbiByZGY6YWJvdXQ9IiIKICAgICAgICAgICAgeG1sbnM6ZXhpZj0iaHR0cDovL25zLmFkb2JlLmNvbS9leGlmLzEuMC8iPgogICAgICAgICA8ZXhpZjpQaXhlbFlEaW1lbnNpb24+MTUzPC9leGlmOlBpeGVsWURpbWVuc2lvbj4KICAgICAgICAgPGV4aWY6UGl4ZWxYRGltZW5zaW9uPjI1NTwvZXhpZjpQaXhlbFhEaW1lbnNpb24+CiAgICAgICAgIDxleGlmOlVzZXJDb21tZW50PlNjcmVlbnNob3Q8L2V4aWY6VXNlckNvbW1lbnQ+CiAgICAgIDwvcmRmOkRlc2NyaXB0aW9uPgogICA8L3JkZjpSREY+CjwveDp4bXBtZXRhPgowMuFcAABAAElEQVR4Ae1dB3ycxZV/W7Xq3ZIt23LvvYCxjTG9BQgJBEI6CeHCkRxc7gK5XC7kUo8cl07ySz9CjlBDCITesY1tjLst96Leu1bb7/9/s58tybKNjMrK/kb27n5t5s2bef3NfI4YitjFxoCNgTMOA84zrsd2h20M2BhQDNjEb08EGwNnKAZs4j9DB97uto0Bm/jtOWBj4AzFgE38Z+jA2922MWATvz0HbAycoRiwif8MHXi72zYGbOK35wAwwFSPWPzTRsiZggH3mdJRu59x8kZOlyH1sDjwy+Hw6PER/ESjOI7oOQdOOhyYIg4H7uWRXU4nDDjsDL/TaTiP7UssRmIWcYKAQcXH3oCr0VjYELvDJU789VaYCMo/h80IekPPsDxnE/+wHLYTAQ0SBcGHcYub8tphiBkkLi2d9VLRfFBKm/dLVdtBafc3SkegXTqi7RKJRMTnShJfUqqkeTIlN3mkFGSOljHZk6Qgbax4XclHGo3GjGbgBLPojZ0cudH+kdAYsIk/oYen78BFYyElSKrzFOcHmnbIprI3ZEfVetnfUCLtwTYJ+P0SioSoDoiL0h73UbJTOYiCcUQo5XHN5/ZKqjdDctNGyJTCuTKrYKnMLVomGUlZqgXgIQXQYjB9h9Z+YigxYBP/UGK/39o2BEuVnWp5R6hZVh9+Xlbv/bvsqd4mjZD4LugBbvGIC4qAy+mlTqAEbNZ1GYs+SnjAAKgr8GoYxB2mSQBJH4oGxONMkpE5xTJ/9DmycuKHZHLeXO0BNQ0+5ziOyaA32R8JhwGb+BNuSPoGECU1idPl9IBAO+S1fU/JczselP21uyUaEfG4QPQgdhaq/s64GRCl1MY/4wugBCf1Grue5yV+n97Eh3FdtYJwSIISkHRfppw17hK5ZvanZXz2dMAQVd8B4dC69Bn7I5ExYBN/Io/OSWBTiYt7qHZvr3xL/vzuz2VbxQYQokOSYaPHQMwRcABetxx19OTzXAQSPayMI0qy16I0D82BpgBdfw4n9AWYD7AAQNh0DBrmwQhAAJpAMNIheUn5snLWh+XaWTdLZlJe/B7WaNUar9z+SjgM2MSfcENycoAowcPRGNRwl/hBgI9s/Ik8t+Uh6Qh3SJKbjjlK6YgSrRPKfiQKQo92gthDcOilS4YnW/IyRuB/oWR6cyTJmyJOUHgQfoD2QIu0tNdKTUuF1Hc24LhZoqEINAifuN0wLGKoD0yAZoEbTIJMIBAJyISCyfK5s/9dZo88V6IIFyqzoRPBLgmLAZv4E3Zojg9YJBaEdPZKactuuf/1f5fN1WslVdKh+ruV6I0F7wDBh0Co7ZLsy5IJeTNkTuFSmVgwR8bnTpUsED1t/94K/QABRABqWg/L7tqtsrvmHdlcvh7H5RINO8FgkkD8JH9qAvgVc4IJ+cXj9shHFtwiH573RegNTlyHExF/dklMDNjEn5jj0jtUIMoICI5q+daq1fKTN/5VqhorNTRHE0DNADCACKRxJ6RxflqeLB1/iZw36ToZnz9dPGAYRwp0fGPh8wcVfhQHHXdQ96ny9yDaZn+dvFP2qry65wnZWbEJbUCLcKfSHkBkIIwn3PAFRCQQ8stlM66Xzy+5RzweH6qOgUH0njtgGrU/hwoDNvEPFeZPoV3a6i6o+u8celF+9MbdiNFDzYcHnvY7VX03SLAj0iY+T6pcOPWDcvnMT8nozIlHWqLNzmLsf/2lx719kDEoe8AXGQGfYYlAwq89/IY8vu1+2V25TbxoPwlMJYLMAkr7KG5rDXXI8gkXyJfO+4GkeTOVKdnhQEVfQn3YxJ9Qw3E8YCxnm0s2lL0s//PKXdIZaBU3JGs0Ak0AfxE49/zhVpk1YqF8cumXZcaIJagMz0FCU/k2Xvjj1X/y85rYAz+CA+FC+gf8IPCnt/9aHt/8ewkgUYhaAG19cAlyC2kNN8mSiZfIV1b+GMlDKYQEp20N4OSYHrw7bOIfPFyfckuRqB/Emyx7ajfKd56/VZr9zeLDMdx4JGsQFm37sFw5+2PysQVfhuRPU6+75eE/5YaPeTCuD0CVt7SBkuoN8otVX5f9dSWS4k5TNZ/XqOo3It/giunXyxdXfB/mATgCsolsBnAMUofshE38Q4b699awFV6r85fKPc9+WsrqSiUZHv0wY/tQ9OnBd7td8tml/yYXT7kRxIfgPklzgO1ssoEwoggexPWb4A/46Zt3y4aDr0ADSDeMBzDEnHAEhlrlo4tvl5vm36nOSKYE2yUxMGDrYYkxDr1CoSm3uEJC+/Xq78ih2gMg/DSNz7tB+iEk27jdbrlj5b1K+HTCMT9voAmfwFK6e5ADEAHzyUrOla9c+DNZMuFiZBe2wSygNhITF5yBKc4UeWLTr2Vt2QvQBlxgAEHtEeuwy9BiwCb+ocX/cVunA57eexLys9v/IG8feFmSPRkgNoT5QHgh/CFRVz6/4huyZNxlatvTrrccc8etuD8vQJN3KQMIw/Hokzvg4FtUfJ60hJqU0JFKpN8hLBp68O37pM5fjWOv9qs/wbDrOjUM2MR/angb8KcY1KMELW8+JI9t/qW4EEsHraEwvu5EKm+n3LTwNrlgwoc07ObkQp4hKk5k/MHrAF9Dhnxx5bdkWt5shBo7YJSYvINkh08O1O+RJzberxAyNmGXoceATfxDPwYnhOCxzT+T2pZaXVJLe56qM7365067Uj407zZ1sDkR249zhhPWNVAXjQlAlT4i2b4iuRXaSFpylgSgpRiHZAzmSoq8vPuvUlL9DswFmAXxsONAwWTXe3IM2MR/chwN+h0kDBL57tq1subAC+LzJhsnGkyAYKhTRueMl08t/hrX4ahtTeJLhEIPfyQSlKl5i+SGObfBN9EJp5+B0QXtoD3YLE9t/30c1MSAORHwNlQw2MQ/VJg/QbugaS0vlDwibX7E8xFbR6wM0hKEhHDZDQs+L/m+QijaITCJRBpCsCGXMT+umHWTzB69RDqhpRBGagXJrlTZcHiV7KrZoL4J7j1gl6HDQCLNnKHDQgK1TC85iaWs9aBsOPQG8uiRyKOaAFbShdtkRtE8OXfCdQoxpWmiFXomCC/XDXxw9mc1xZeEz8LQpD/QJK/sfTQONntrl6HCgE38Q4X547QbReyc5e0Dz0q9v17cLuTjQ78nATk9HvnAzJvjkpSpuompOhtJH5NFRRfInJGLke+P3YXA0JAZgLyAFGQprpK6jjL0A55/m/x1vIfiwyb+ocD6cdtEBhycd6FQQDaWvirOqNkjj06zMBbqTMHKvAVjz9enByOWf1ww38MFEjooXi6Ydj1yEUDiNFnAANzoX0NTrWwrX2tq4QW7DAkGbOIfErT33qiugIM0L23Zi3TZ3ZD6SRq/p8uMm2ksKb7cLKJBMk9iyvyj/XKCYbHMG7lMRmePw56BAROuBEMIRYOyrvw1vZ7o/VAgT9MPm/gTaGAtFbgE6/M7w8jnh6SEBw2Ld8KSnpops0adZQgG5xK9UDOh7Z+GzT6nAW6uQ4hhyTCJ3QWnYHnDLqQFV8fNAVv6D8V42sQ/FFg/TptWyG5vzTYJx+1kngsiXj4mfTI25OBeeUzgHV7EsqBoOdcCqn1P7cYL1b+yqUrKW/YrJnjOLoOPAZv4Bx/nvbZIqU9pyR1xylsPwTFmEncoKbkX3/iCabp7D0N+tKWHQ7GY2dhM7ByUkYdMROtNQC7VbMqa9w2Hbpy2MNrEnyhDGxd+rR218ITXIFRmwni6PB6ZMsUjJiuk5rbhMWwWj8pOK5ARGUVwWmIJsnYIC3vRBb5AhGV4sDIF9bT6SLxA8WmF3r50hmTtkFZ/k7R1NHFPbYh8boERxd54SVKQMr4vlSXIvYz5x3Qzj1xfARYlxZcbA7ootICaluo4nDb5D8WADQ8RMhSYGeQ2Lau3FdtwcZ08VWbawhHsjpOclIKc+SyFaPiRielZTmq+bubBTrAPzqhHWgON2if7Y2gwYBP/0OD9uK0GsFW28X9haKAiM8/f50mWJKTGarF06ePWkGgXDPGn+7Kh6rsZtGTkUjlAKNgusfg236bPiQb76Q2PTfwJNr76Ig3uoosXb2gBVbj51p14znyCgfsewDH9oOliBSi1a1ijwLcDcyciU9BnuwwqBmziH1R0n7wx7nJnRGP83rj0j8FG1mLZB/HLw+Urho1Gj4h8/kI/yAR0AuJ3nNUNl+6cFnDaxJ9gw5iEbblYDI2bT4bIwtgNZ3gW04dO7OcfxbZeWkDpVP+9WLfgxO5DSvnDzpwZnqPRFWqb+LtiIwF+p2A3HL4AQ1+gAVrhG3E6sDW2P9QShy5OQAkAa19AaMGbgun5V70mbuAnY5dhs+CHfbJlf1/w2R/32sTfH1jshzqsqZ/my4GDLwWxsHhYDFt5deD9eY3tNdrKcCN9a6vuuo4qyHpD5OyrK+aSjJQ806c4M+gHNNpV9AEDNvH3AVkDemtc7c1CLnx2epbmxVMYOmAYh+ERL23br81bTGJAYem3ypm16MCGJI3S0F5tshbBABjCBO1LIRJ/WIZXn/oNOUNekU38Qz4EBgArFTbTlycjfKOxCo773+EPxBPD/73V2+KQDh9SsXL2a9sPS1VLGZbzepTwdf+xSEzGZE3TPg03bSZBpsz7BsMm/veNwv6rQHe8QX6/vl/PGhlISS6PPdRQgj3xGw0z4GuxEr2Aoq1Vinvqt0h7ZztgN85MZvqlpWTIqLTx2ovhw84SHel9g8+aYn17yr57gDBgyGBK0SLx4q08ZAbGK54klS0VsrPKSP+YYxh4/rEYybL33y19S4U9TRhqMqFwWEZljZdRWOfPovn++sv+GEwM2MQ/mNg+WVsgDJbJ+bMkExlxTO3V3W8g+ztD7bLm0N/1OnWBRC/q2Ud/yhsPyI6qTbqGH5n+Bn4wr6kj5ut25GZ/P1v2D8V4Jv4sGgqsDFGbtPH5ptuClDEyHRt1hrC8l9te8s03XmyIueXwW1LXVomlveZ1WEME5ntrVhfxiKwufUaa2xrEjZeK0NvPDT682MN/8djztB722S5DgwGb+IcG7722SjKIOUy669ljL8UruLEXLogFNCMebOlV1VYur+43O98m8ksv6MBjHn9LsEle3/MUlifz/YHMWcB7B8IBmZAzWaaMmAtGQE+/Tfy9ToZBOGkT/yAguS9NWK/dWli0UkZnTZIgXsul23mBULgd9is7n5DGDr7zDtt7YS+8RCsM2XO5Lsn6pZIn5HD9Xl2STInPqEXEEZZz8EJPnwuv84ZGo1wh0TpxhsBjE3+CDTSdZCSUFG+6XDjpWuT6hCj4qTCLz5EsFU2H5bEtP1eoeT7RCuF0xd8x+MyO34vXkQQQKd+dSFEOyqjU0XIu+sXiHAa+CwX0NP2wiT8BB9byfq+c+iEpwqu5QuFOJZSwM4KXeKTKS5D+GypfUU1AHWYJwgWs0B651UPv3Id3DJYjts+XjkSwJTl37fXLeTM+KHkphcrgEhD1ZxRINvEn4HBTTjIWnunLl4vx2qtOCajK7ISRzFz4IEJlf1jzfbzymi++4AsyjV9gqLvCtfm06/9a8ltZte85vJ4rDXpAWB2UIdj6RZnj5dLpNyiYZHAWkxtquM/U9m3iT9CRNy/kDskVUz8mcwoXYGPPDrAEvt0W0t/lk4OwpX/1xj36gg8nHGrc7mvoCqx3wMVXir9T9rL8ad3PENrjxh1U+GmycDuviFw7/2bJxVt8uUrRdvQN3WhZLdvEb2Eiwb7NvvdOJfRPLfmqpMIHEBKm/ILQQTyprnRZe+B1+fmqryrhkZgYJhyKKEAE244x/FhS+4787LV7JBL0I7SH14yB7Jmd2I4VicunXiqXTPk44KPj0p52iTDd7FFIhFE4DgxGpY/ItBGL5COLbwdxm739QOeq6ifh1d0v7/mL/OLNuySEvf2pAVj59Mepsl9P08anRHchZ39H9dty34t3Sou/Ct592PlQ9wl/AHb++NyJ+kpxbRyZf0Yf6FdQ7MpOAQM28Z8C0gbzEQcIiNL8gzM+IyunXi0t4RZ93x1hIB2luTLlxZK/yI9evgOEV6OqdwgEOZCvv2aIjmo+GQ0JfNWhv8q9L31JarFyz0s7n74JJichFJmMhJ5blt0Td/LZ6v5gzp2TteXAAJIV2yWBMUAJS7W+Axl/33vuc3iJ5xpJ92YYdR+OMzrZ/JFWKc6eJJ9b9k2ZXbjkCPFzMU1/2tcmugDHHqR9INQpj2z+sfx1yx8kFnFgya5HsxFpAtAUCDg75Yvn3isXT/6wMgLzLgJb3iTKVLOJP1FG4iRwUPrTD9DYWS3ff+F22VmxEbkAqWALhnfzWge2ykr2+uSymdfJdTNvl/SUbNRqUmpNrB1sgKl2fSmonmm5xm1nnufRlso3Ec77kWyveleSHWmonvUixg9mEwLhh/Ey0c8sv0uumXEzNATmKriUSfWlafvegcWATfwDi99+rT0aC4CAvNKELbF+9Mqd8Ky/KWmeLDULjAruhO0fkWCoDVrABLlgxo2yYhLi6skjFA5GBGIaLjQM4LiMANRtmIrROMhYWCIg4pLa9fLcjodk/b7XJIA37yZBree9jEKQ8APISHTD9/CZpXfJ5dM+pdoJNZP+1D4UGPvjfWPAJv73jcLBq4AEzgw62tn+UIf8es035dVdf9FFM3S6aTINyMyYAZ3qBCzOKpazii+Ss8ZdhJz62WaLsD6ATI2jzl8hWyvXyZoDf5PNZRvFH2gD0SejXS4wCoNTsE149bEPf3Z6tty+/BuyuPhK2P54lTjNjr5qG32Az7711DFgE/+p427Qn6S6bZRrvura/D2x9Zfy53d+KuEgJC78AE4wCO6HT4cbSygawN74cLxhs8zivCkyKW+mjM2eKmOyJ0p++khJdmYg+473UnoL7u3Em3SapLL5sJTW70Q+wVbZXbdTaltrlZjpyffgD/sJ435sNQopH8aRP9wm0wsWyG0r/kPGZ8+FjR+CX6B//Q3aIfuj3zBgE3+/oXJwK6IOwH+Uqlur18if1v637KzeiH1/k3QFIK+rn4BMAmo3tYIwGUEIITivR5I8JOIkSfGlShK0BjIWahWdwQDeoNuJBUV+/O5QhuBDUpEbhAwugWN4+dEmLHgwg6i0RjvgfEyTS2d9WD4y54uS5sX+g/Dy6wIlW+IP7qToY2s28fcRYYl0uxI4U2ohuf2hVnl+70Py7JaHpLKpTDwgPDeIlgRrpDrsdxIv44M0H/AcGQKPNeADlcLJJEGo77gRpI1kHKzB5286/MxzOAdpzzBiJ2x7vkZ8bvFSuWHebTI1fxHq4Z1gLqp1sJ5EwpYNS08M2MTfEyPD8JhEx0Liru8ol5d2PSqv7X1KmQAJnf4Abp5J8U5hTClv6JK/eGxRqTnWk/FzvELtgoyC+fkhqPjJSC6aO3KRXDrjJpk/+iIwCWoEgAH38c8uwwMDNvEPj3E6KZQkPtr6jL+TAOs765AP8JKs2f+y7K3bKk1t9RDtIG5IbhIrY/H8z4W1WuI0S7ufqn2UEXuE7KLYcot07YGZMCpjjMwefZYsG3+VTMtfqGm6qj3gbtUSTgqlfUMiYcAm/kQajX6AheE8DCqEMAnbEHJp017ZVbsRYbrNcqi2RJqwGQgXCnUiSSccpixXigcfgKmAP6/HCwdhiqR60mVkxliZOGKWTMlbKFMK5kkG3iug9eIZMhy2Y8t6Rcmw+7CJf9gN2XsDGKQJTcBEBRj6s0oMm4PU+uukuqNC2v31+jagIDQGOu+4CUeKJ0lSkzMk21eIvQSLoOKng8Ct57l6D+E7MIiudVp129/DCwM28Q+v8eojtJTozLvjF1fYUSOgnLaI+b1VZ6n2lPJOmA22qH9veEv0u2ziT/QRGgD4yAjoCMTncYuVmGM78I6LomF/wSb+YT+EdgdsDJwaBvqm/51aG/ZTNgZsDCQgBmziT8BBsUGyMTAYGLCJfzCwbLdhYyABMWATfwIOig2SjYHBwIBN/IOBZbsNGwMJiAGb+BNwUGyQbAwMBgZs4h8MLNtt2BhIQAxgkbZdEgcDTLsxuXj8Pn1z5plk5OA/FKYRWelGp2+PE2eOHYXEJv6juBjSXyR5kkFHsE0eXP+fUtpahWW4Xpw1y3WHFLh+bpw7+nVid6HRaaPl5rO+Jj4339iL3tu038+YPnF1NvGfGD+DfjWMXXC2Vr8r+2r24TXWXizOsaTioIMyYA2S+DsindKSPwXbhmEPQBxT07EXDQwYynut2Cb+XtEydCf51h2PJxkvuUzGCzCSIPdPP+LnugFuBOZFH81OQ2oFKAsYOsyfeS3bxJ9oYw5D2BHDsJBA8P909MiS9PV1Q1wqTMPf/Eu0kTjt4bGJP8GGOIbdc1qDjdLc2ajbY+vrtxMMxvcLDvcCCGJz0OZgkyF+rdBW+98vXvv6vE38fcXYAN2v0hB1e10pctnUG6RxZJVuyWVs4QFqdMiqdUgYm4rkZOThpZ72FByqYbCX9A4V5o/X7hkmAK0ox/HQYZ8fOAzYbHfgcHtqNcP+5d54ZqsNHJy2xYQ2j24Rdtp2NGE7Zkv+hB0aGzAbAwOLgdPRmTywGLNrtzFwmmDAJv7TZCDtbtgY6CsGbOLvK8bs+20MnCYYsIn/NBlIuxs2BvqKAZv4+4ox+34bA6cJBmziP00G0u6GjYG+YsAm/r5izL7fxsBpggGb+E+TgbS7YWOgrxiwib+vGLPvtzFwmmDAJv7TZCATpxun3/4DiYPb/oXEzu3vX3yedrXF9IWehqC50qC3XHyuQ+B9XJloveDTes5s3HE6r1EYvkM+dLn9mE9cwMIlLGZzB7N41clNLLi5YxQTymntX8fJ05tEMZOKV1gHt4fiv+FclIiAA67jN4t7jvZG1TRcM70d2I6ybQdgMDvtHG3Lgs+CinASJGvbET3GkcUErPvs78TDwJARP2g7Pml6IEUZQgTXPH2jYzITTlgljh51DqNDEhdLb/3gJW7o2ZXY+qNrymQoubmzDgqPyXy5pdjhxt3y0u7HJBLpkKUTr5GZBYtxgxm8aCwEhuuRtlCrrD74pGyr3iAd/haFPT0lV2YWLpaFRSskK6lA6+ytT/0B/4nq6Nm3E917pl0bMuInog/U7pCK9r3icnpU0vmwp9v0kUuxf51P9tdtlHp/nbjABOSYHWwNgVDeUOJEMAkLMsfJmIzJw378qA2RCHfWbpADdTvFg338xBGVSDQkUwsWyfisaUqYDudRaXwqnabOBYoUalrEY9dCfBLvB+p3yHefv03KW/YDy07JTMmRuy75mcwpXAqcR3CPS6pw7cdv3iUlFRsljF2I3Nh0NBbFqIBB+B0BuWbWJ+Qfln5bx5c7+AxGMSZHFH1je937NhjtD5c2hsTmt1THv+36g7yw8zFJc6VJINYpI9IL5VuX/UmSM8bInzb8RNaXrpI0dwomGgiiC0aPkD4mLv+CUb98atFdMmbO5EGdZF1A6qefRqKGsMvN/677vmw6vFaSsZknpZcf215dPvMGueO8+yQKZuDC36kVY0oZEwnmBSqpaTss5Y17ZXbhMvF6wGxA6Cyv7n1cyloOSXZSHrDslKbOWnl5xyNK/MR7BH+/WvVt2Qw4M5JysNswx6JDzTXwBmzJ7ZOzxl6gdQ3KBzUSFGoY3CCUpbL1gFQ0H5DZBUvRN5+esz8MBoaE+C3kU610xsx/blrJCWapnhzAaCSCiQ5FV4kfV1VKmcGl1MLN6mhyOtxSkDPWqnbYfhtt2iEHW3ZKac1+yfRmxaWXiMvjkh3Y0pt7+2X6spUhcIr3tRjG65LS+l3y8oGHZX/tHjnYsFNSsXf+Dz/0NKpLUp8Lq+6Equ8izgEYPTNOcUsITJpwUqpurVwl26rWSFpSJp6LSTASgHYyR86ZcqnsqN0qqY5kWTDaEP9gSP0YtgF3QIs82LRDXtn7lOyt2Shl9XslDSbIf1/1iHjFd8p46yueh8P9Q0T8SrnAD9/VAtmD+QX7Q48tpHFikxGQCZDoqWYGQgHd7DVKhwHvxnnua+91uiUndYT1aMJ9qx3PPrKjJyhqz0NibTjwunSEmiBJ05W5kcm5Malr2sple+VqWTr+Sj3P/r/3Ygg4GlfXn9/9sPzpnfslJzlTAmGYTYVjJQn7B5pi8Lts7OXyWsnfpS3cLG4wZ5fbJWdPuJLgaClr2i9twQCYVJIEw0HJTs6TOy74oYzAyzg+MNU4LLuParz69/mldjzq6InPGOcLzr+862F5eN2vJc2XIYFIUEblTtbNUN9ns318fCB63kcQTnL7EBF/d6h0quFDJ1XX+UyGgJMR2JI5qQVy4dRrxelyqeRhDWQOUVzjpC1IKcZ56JoYfjPNzTcJj1Ln2AlDUkP9bIJ/aNd6QQaJqufE6g4xhaE+jftY+Gm1QLiOdoK78TqgmZysPtbihA0dwUs7dlSvRXVQvVGNMkc+DS0pEgjL9qq1SvxHW+CTphAClew4NDAYzYi1WBoVbX0qxPQhpHpSJMVNBtMiST7Y6mwP+IpJCNcjMnf0Cvmni74nL5U8AodfQC6Yer2cN/4q4CmisHYE/UfcMTHcn5WeI+lJWRJC3RgZ3ONVzMTBi9cNhKNYmsARPJ4E50f61uW+nudMzSJhmCNpvnRJhslIOZECHxINR6eOGQecTKI7Bo/AwfO8pHgweOx5r3ZAb7HmAO6IjznrYQU8VqbPMbEeMFeO3NvltP60+tP1vIWnruf663dCEH+3znTFFC4Q8VFOrNRsuWbOLZCGKYrO4w2INaQkZA7AEVNBR9S0dNSMMARmtW/dy+NYlBrJ0UG17uHgsl7VSqyT+t07RFRD69uqJQn2JtVjDnBvdxImDvSh5l2yp26ruN18VRfvBbPjH2axGxrO9or1UMf9wAN8AfE+WmCwXmsS4hFM+O5OL+LGOFDx7XJrvfSnhFF3sitV22dbTkfcNgYKlo29Qv9bbZDw0SwHRrKSs1EfWQv/G/iS3Ml4nuzF3KSwE2dq0imEVlX63RWPBgeEkv9N0brjuLH6Fgx1gntA4wNRH2FqxEX8HQB8zRnrUmaO79SkFPHgHEv3mkmgJFYOtdEa9MCcOHKvGXOexHzpUro/Y9h0V2I18PY22nEEdqmLPwm/1cdul/T23p/pdl8fDxKP+Lt0gGOpkwg/QuDn4TDUfie4ufJxXqKkd+OVT53S6K8F0WyWTWVvypS8uXLJtI9Lrb9Sntn2OznYuEfc8F5fNevTMnfkMp2IUbwrbmPFW7K5bBWiCjWoPSiprgwpzpsi54y+TArSx+gE0jmMVjgoZhJgz3lIwW21a2V3xQapba8E8QQx4d1gUHloe55MyJmJCZcu/rBftpS/KY9u+JksGHeefH7Jt2Azh8QLidit6AxnIyIbD78pbYF2OEFT0E5I5o1bJhUN+6SmsRx2v08qWitkT9UmmV10DuCBVoFQWwwOwABef0VYdleuly3QDs6dcI0sGrNSDjTukOd2PCiV7aWSm5wr50/+iLQEasFkdkqSEgQ0ATCC2lbgaucf0WdgAnVNG7FAJucvkJKqd6W65YBUNR+U2o4y+cDMz8mU3Hmy+tBTsr16Hd4uBCYF+MGXpK2jRf624w8IEbrAsINwVqbKiuJrxJeUpgz8cPMe2Vi+Wg417ZR2f7NqHynedCnOnglz4iIZkz4RdYWAa0Z4MLyolzinb6imo1ze2veU7KnZIvXttRJzRSXPVyCTCufIcmgjBSmjpaq9TEqq35bSht0gU2h7qMAF7lTZUoG+PYC+RbBleFCmI1zJ/lH7ITOMYHaVwJ+yofQVqYbzMxqJitebLGMzx8vi4kvwPcUwEvifyCLIWDpCjcDLYfg93kJU5IDctPB2zJkJsr7sRXlt95NqthWkjpMlky6XjoBfalFvfUupzB9zrswffaH2y2JcFhMvb9ktm8vXgvFD20Vb+CeLRl0geWlF2n5X4aQIep8fCU38x+ub4d70AwhCYU55o+Rv8ts135OQA0ygo0nmFe0DEc6X+964E++82wvCN+HAi6d+SKs81LxVHlj7Y9mEiRgOdpLmUDCo+O9EYtGTKb+Vq+feIh8Es6DEisWdjuTqJTXvygPrvy+7qrdJKBSEeKWGwH+QpI4w9qH3SponQ9JT06S9s0MJIozzL+x8UuaMPEeWFF/RbeDjTYN5oBJMzs0Va8QVAaNBKC+K5y6cfK28uPNRMIBDkhpLh8OvVjZWvWmIH49QcrsA14Pr7pPndz6CPoSkvpUv/EjBJPLID1++A8TSCAYVkCKEQ6cXLpHfvvUtqPExwOrT8JwXBFAKj/ivVn0LvRUJgCi+cemvEOLbLT948VZlRoEwGA141vkTr9P+PgSGdqBhj6Q4M8QJ08aJkGRVW5U88PYPcN2Jyd+CiX6OXDTpRllz8Bl5cc8jYCTbgJNWdeQyTCgOkJ0qWE/LU9t+KTcuuEOumP4pJVrilEq1C4T/0v7H5dG3fyTlYG6gVJh51FpE9kS3yurdL8mzm/9P/uHcb4JpeOXnr/0bnvNqyDECRuZyJMnB2n3yu5rv4AlIZ4zXXZf/XNHupB+l45D8Zv13ZPP+NdIeaidIymyiDFe6IvLElt8hyvJR+cjc28G08XoxlEAsIP/z6pdBqOtgY4SlGRGOGaPOlnDpq/K7VfcKozUhjN3U/EbZVb8JIe1dwKtHmvwNUgGGocSPDqKLWmIQPWTiT21/QJ7e8r/KLNlGvrdAFn7w/Phd/f+V0MRvkANCAPF5Yh6ovVTziIS4zUZxg0L7Liid4gl7JTcpV+rwhtvvPv8FqWmvkQwfbNCQXybipZALRp8PqbNHvvv32yENSiXZmwoOnyb+aCe0SHB1EEtSzCst/kb5w+rvSVN7ldy85GtKIB5MlO3V6+W/nv9Haeqog1RLF7fHaRgAKAZRb6jikFgxl7RCcrcF8DYaaiWQgA5IHz8m1s7Kd5T4lXoUcvNh2dCH6ktkf8128YIoKV1oKkzMniU7sjfIusOvoteY1iCy7Zh0wTnoL8JylNTER3pyOgiuXTLdGVIA/8jmsjdk7b4XpQVv/U33ZuDtv60yf+x5kE6jpQMaiQdE4VI1mRIGfY86QSgxOP8CMil/miwes1L21m/VaelGBMDnSQOnpSSlOUKJTL6HXpNJ4YwjCmnvgH4WplmAKA18FpdPu1HuX/3v8tz2P6spwPyNFIxhGBQWjQBuHCdDc6C629bRJr9dfa8UQfrPHb1c/QbE+Yu7H5X73/gGGgxJOkLCYeA6GO4ABBH0PwU4T5LDzYdkd+1mmVGwUAJgfp4oxgFwca44QMQOtofffpgLs4oWy9xRKxTx9WBW33/hNtlZs0PSwbBTMaadrnbghbhwo89J0hkIyf+t+5k0tlTJP577PRCpS5KdYAJgeJ3hTuA7W/IQRXhy0y+kAYKHDIWRk/Zgi1w9+xZoY/tlV+V2yUnKEFdyPpjsQdUuCtLGAmtAIv5R0+kMtCJXYgMYWzKwnQLndlCWTF0p+XCeqvZjJr7C3V8fCU38Bjfk/i5pBtd8uuT3mHwYfUwWqkwhxL5nFS2V8bkzkQ+QLm2whTloHZAurTptidwoYs+dMi53Fuw+n/xy1dekvPWgZIJJhECYVK+WjbtI8rJHytaD66Am71V72u2MyF+3/FaKcovl0skflwBUt9+vA0Pw18N2z4J09EsS2po7/jwpzJ0kDc2l8u7h1Xj1dEB8YFRhAJ+WnCPTiuYDJqeqe8vHfACEovOy1/HbVvM2mEaLMhYyi0mAuSBjrIzNHq8TMgz13g3pVtp4UA617JDJuQuO1DMmewqiHlBhyRyBn4bmJok6Q5ikEGUekCeenVQwQ4qRCPXxRf8o75Sulv3QXshoAjBjRmeNleVTrlbJPBUwcxKTKdFVyXbDgJwOswh+gx3LouLz0Z5XDjfsxb1gVsBlOsZgevEi9Zd4knzQwFZKSe1O7XMmrrUH23GvW/JzRiB3IFcagMv6pmp9FbkPJlcrzJE39z+pxE/CL23cBY3mBxhrMEJnGsYxAIbrkiVjVojLmyJ7QCyHGw5CtV4JreFOKYO/5KaFX5JNyA/ZU7lDmSNDk2OyJ8k5Ey+EZPfLDGQd8iWoMTCP37zzHWhw21Vg+ME2yNEWwsk5BtGBneXrZQ/ClfDUoM1MebbkL5ILM+CmebcrzkflTRZv2Vr0DZjBc/UtNRA/0DSAezLEFF+yjM+fJaMyCjFffou5hgQoaDG1MEH21W8WJX5yUBSKMiZ1VbdU4h4wdIxZEgTRvNEr9TrvOqon6Kl++Ug84lfJrvPXdBAIIkHXt1fLA6v/+wgayBAooa875wvyqQVfBdIheTA5PWoDYxAweS6aBe/0pKukHVy1CBPgjX1PyObKjZLhzQaC4RPG/5vO+ie5bu4XtK3WWfXy3edugf23DQkqKRAebnl8029kJVTdkoa1cggZdz53KlRtkDZG5PoFt8u1c2/VdmkSvAwp9YtV/ykhOKMoCQOYbFdO/xhSYpco91YTgg8ew8VNQsr60jfI73QyBEFMY/OmKlxjMqdKVkoW+hFQAu8INcvG0jeV+OnN5tNpyAkgTuh2YmSA0jcVWs8HZ98MIlwuLbBRx2RNkCzYyTfM/zLek9eiksaL/oRwb0HmaFVtgXntDxuOAU7CY8GkE1AnrEM+veir8kL6w/LTV7+KdlIg8UOSm5Yvd678IbQT+gEAB3DyURDLlkOvyoHmvXL2uIvlwunXyqScuZKRkgeGXiP3vXQniGyTJEs64PfCT1ODsUG0AOP3+LZfSVNbvfpP+HovyGP53Nl3y8XTPkbw1G/x5KbfyVUzPolrIiNhc98475+lPdwmOys2izfmkyB8O0W54+SGeXfqM2RoLBvgi3ln78vAG5LIYAoEwbSvnfkJuXnpf+j14PxO+cFLt8v6w69ADmcgYpAEDeYBWTHuSjDK8dCmcoAYYAb/6A8K4feEnInyobmfl9EZUzBWzTI6c4yEQ4UyMnMs8ir2g+mkgQm0ydbyt2Vp8VVoh5g1ZUs1zA6MSRq0NGo2owDz7JHL9GKvTkDrwffxnXjEH+8MGKgpQCpR5AJRp0ANI90Q57QZA76wJMMOozR0eqE+Bo1Uonp33cJb5BOL7z5CmKzsl7ufApNgbU44fgKSmzECjsGP8BKknx9hKjjEpt0gOyo3q6T0umHHNlRgIr0trXBQBfwBSHNISqjGmZDqK6Zcq8/S8UaD+JyJH5C/7/hfqO67wCTSVFtZtecvSvx8Dz2lWU8OblQ65NBD5dd0XhBAWDl/EuxII9mLcqZKfmoRVONdMCFQRziGkN87qhozAsBCc4BEL2RMdJiBAX3+3LtkefG1RwiR9ylh4XoY/WXSDr1K9DcEoVYTM3Q+MXOPhAZg9ZwFM80Da1hYVxgaFZkNTSYODJ+LAq+CfrIWAKJa0k1L/gXE0AD7/ya9j8+SUVP6zRm7DFJvE2/Ff5fCRdW6tqNKpa8H/SWDYx7BnHFny0VTbtTIB+3k4szp8qXz4GNA+4pHZQECmxswENOAiQw3jGcN0RtmxvbX7HlOHbf0z4Qh9dPglLx45o28BLyCycIkuXTWDbLhEPxCYBgeSOSm9gZZe/hFEP/nNXuRWhxbCAN3WXCmfumCH8uErCmKQ2UIYGLJXp/MBfPdX7MHKj0se+RLbIcTNYD1EElwiBLBnRASW0rhPOVYAmaGSuePXSkpMEktk1AB6+cPMszELJyJLEAGC9VN2ormPzz/TirWVLkwyXALPcIslDacWLmwbVlCcMZwctR2VEKN3AdXEOUk3GKwT0dnT4Stl4X7oU6SEFDGZCIhJCkV5yBpYDtG4E3YXvuu2u0xEJRVqO7Rc6wFk5YlgkmjNji0EE4zagPttG1RTDpuV9LR0xx7LVvr34bNWIcJAOLnZErKl7n5y/VaBibo5FELFQekMw98Aftgp1Zi0Y0lFeixp7YjmFxkRi4wo6LkKfo86yNxkI2SGLQoXq3WiUL+AY+AWQkfv4+BtueJ+NiYCs2nwoPzJGBeZrtLxlwmF02GtMaJtmCzptweQlZhefN+6Yy2KiPX1ggjn8VYHqzbJA1tdernISAhjMPU3Pm4Ru0GDjJ0g+ox8wtMifuBcHCkj/ErhIn94tyg0OiEk3dfwxb8Ji6Q1YA6CjNGI3pQqE9Y4dCRqZgf0LiYYMbCKBO1FBbCaPrKPiKvAOHEPF8+rhDL6Af6Qh8Ky2Ko7z5cpxbigUCpbC2H43gLrqB9wHCwcRtMlgPK2Gke+OAfWAwvvyk9kR4/3Q9fZsb3Q0X9VkV8Ph6lMyb5hKQwa7TcsPAL8OKmArEMBzHkFpQJCBOF4MDSqUsJQEAw2CGEq1jcJEwcNyCU1Q47nZOHY0IveVZKth7rQ/Hlw+mQAByojo5mEBNuhNhpgMlx1pgLxAs7Tr3kUGvbkGb7zLYHoF38CyaoGzAG5cXtD6nziW+eJZFGPA6YG8UKh7qRlfGYQ35qiIczG/e+c+g1mAqYDJAOZCrjCiZAMrilEU4pHyTA5BEz5UWYIWRsDvSpFb6BTeVrZCz8HVogOjkZ6RxlfWSWnTEk4aDQbCK+WI5oVGwXJT4/9bf18Z6nm1bGCUwZ2L3oSIAJaSgSlzZWvSFr9j8vdGrW+6ukE1oUScqBe7y0c4kw1OOGhsdS21arRJqajBAD+syoTg4WFmlBX5S5aJfwXLwv/MVC+IEKPIcz1kle0AOHCoJmSF4yBF6mAMlFdqIP6yhYdC7h2weHcFpyCrS+eq3QhfFhtEXvYdVH6qf0p7lERs+n44wh3pdJIxbKqMwi9H0/bPlUrHxslt1166ERGLWeadKdnfD1UOVH4tSEwpkyZeRc1Mdm3/NoKFx9+Ug84u8JPfrOCZ+GePBZYy5Vr7ORYJStlGQOEEKrDg4RHyd/oN9MdhoClMt+hJ5oNx7BJREb1xb4nIViEjLTWDkpeJITpM3fJJMRv59euEg27n9N00ap5j+z7Q9SUrlWcjCwjLEfrGV82Y2QkFuaI20yIrVQViAGbcqxqCasrL+y5SBixSWY4GAiOtG9UBN3ylf+epNEnAxFogeYCUzxNf0DvFD9tyKef/WcT6H6+HkATbjZc35bE4e/jy1Wj4+90h9nGAMgjjrAcH+35h7Evv8Gp2kn1Gm3Ov0YcoORoIyJzIlmCqUlmTMLbWb2lVCSCBhlSELs3ZSusHf9Hb/c9avrZUUKtIhwq0RgupGJspCG3ZDITMhSXMWfcSOb1OMhM9Kzik/mAJjSvWLOIAvf8Rt4RvvExVmzRp0DB+tuqoAqLLZUrIOvCboEtI6NlW/jWa5xYXw/gtyC8+HgTMY1RIqAw4EqhkIGqvb3WW98rBSpQSAlBBWaE4QcltyaS0hZSNBHh8L8MkRyFAB6uw2npnTk/YjMx8Ug2wEZ6s2URhwE2rEqSbVmM/i3L71HFk86XxyQ7NQoXAjK7K3fKav3Pi/7EM5xYZZGEfdtQJgvG4tJvrjim1KYPl5hJZH3LHQcsmyueEMaW6niUsphcsDOJaHUIqGnobke/2ugAkP6oEVOEobGmE9Ab3QlogxaAK+BkkfEgWGMeu0kH2SZxEd/FhIUa3xw3b2IXT8EE8oBJ1kmCIzaS1gyUrOgtYzXMK0Svd5NAjB4cnK8oJawHqtfsThj6AuccUXoSB3mWfQXRGj1mP032YDEA0q8Qc4X8CgcmzsjxDHm37EF163Kely0YOcCJx81R8xbmmeH6vZirUYpciPK5QD8AfQHBZF7kZ6SjuSsC0wtRyRVj0r76fDYGdlPFfdLNXGE8ot4YKhEOSQkBVNILWeXXjyCKAvd5puEzJIBZx7j5lwUxAlBAuqEw4ol3oz+DiAcFURYj+1g6HXy0SnEUghv8j+v+JEsKDrXxO95D1RBOhwZw3bBIVmE1YVXzL5evv2BPyKvgJlclO5GwmglXT5of5Jk34Xnnio/CdCJEGMIC5j8kEyMRjDHPowZyMSRAOLKOhlRB0NmjR0N2EDjba2R9RgUWL2x8NClwV5+mruJE+u5Xm46hVP01pc17ZNVe55G0lOaTvhAtF3yEPr6l4t/Kv919WNy7weeRHbeJegjHXSGqXGMWVLIKOIMmSPEFZ6BEOP7LF37xp53PTZ39PoZ72IqIiNepDBT++ApMubOSDs89nEfTrw+Ogo7oYYbiU7GgDwLqO0snBv6cLzOI9NPrx79sLLyZo5ciCjAeHVGUoOj83A37P598G0EkRdCh2Ik1gYNc76GrlmDk47bASzH6qID2Fifq+aY4v9Jh1bFQ8+7uo/KiPRRiJ+nSLs0o0JIGMRiG9vrYMMzfZTqGWQ+iLE90IaEGCR60A7l5ACGcqHWs2xHSu+v3roH68PLlOBBpjIub6JcN/82DOxEVelGpBTBdkuHJGF+QVBj4fpwjw9OWDKFMmyGsatmG9pDQwCZ8IyAFzwnPReTAWof/tgzTlCmFZc1If00DHUZRELmsKHiTbl4CrzovK8bHuL9P6ZdM2eJVQtjSj5d7HbrvCXxelRx4kM8TDhIMPsadmAPgGbkTZikJS7PvhpZk+cUXwrYkVoLIghA3Q+C4SXzORAUU4NZMlPyoeab53ASqnpEWpFEw0LTCCoEHsD44FtxxL73KOZMHIMKk7Hxc9JGQAvJllpBxiAK62iGZtUJ5uJJSlLMEHvtTNaCyaeCAJWxT/kI37EortFyFyTq+WM/wDIAJ9ekzEFOyt66HYhQIeQHo+dAQwk6A1cmGD0zMjkOZ4+7UKtQbYh9HMAytMTfy4B17as1fTmIqr6d4P4TDj2IOB0bUkzIni7VJB4MIhRoqa6vQPy7TrJ9IxAOCuhk3NOAHWkw0ZB4hqFwIjyThO2ozlaw/vzOj2VP9U7UlaF1UAFcjjyCSXmz1enowv0N2H0oFQ47hn6YNnu8QTTnXcg7WCXN7fWaV8DcAzKbm5f/iyweaySikX4kJpd6i7/+7E2yu2wrsszSNDf/AJJUOEEZJTATsisGu//uiiP6N6HXaB9pe8OjoDeTKOnVNlpJ9+ePObIGqMuFrm0EkFXIECf7QFWfEo+MjSWEvACX1wNTCcSpA4x7+BevczzWR2RjuXEDkrs8yAIgGeyt3Yg74OEAXjUag++WYCMSr2pkbMZUbUOZApi5KZTW+APuMIOU4fC8B/b0FCQ87YPZBK6KK0jzRVZoQ2c1xjZb54IXguJQ8zYVBF4QLgv9EbMhwc2B+TL9PcpIzdnun9bVOWOWyrM7H9ToQjK0xG1ItHKBwXngz6BWl5VWIPNGGScggO5eyQAcDSxrGQCAT6VK9YBjiFdMvgZjzZw1pIAiy6ums1Ke2PpbnRRJUE25X90LJY/B+QN7Hly3ExmEUwpmyiwsBGE2YAs0hWQ4hhgWZLabByG9Rzb8XL70xDVy99M3yVee+qj8+7Mfk68991H5wctfkB1YB0CpQc7fs1jOpq1la3CdexZS6ockL6VQpo7APnkoVPtoI1uOKDqBpo5YpETCSeeCb6CiqRx+h3c1j7878XclQ62u+0d8bnFiMjGqHv4FP4iV0pg4MoU+iZ71dJmUXS91/R1/moyTTISFWk5nMIQEl7f02Ifkmg6E/cpb9jITX6U5fR5NIMIOpCSPzCjWBTg0d5hu60OCzEYsenlsyy9gEnXoAilmyt33yh3y7WdukSp/qcLOynVFJkaZkFKTKG86gH0GGb2BGh2XpismfwhjiQQn1M90YD/afHzzb6QDjloSfl1Hqfxt6x/VHHJjcLhD0discbJw1Eo2gbrjpNNLv/WGLh/qfMZ9MwoXSFHGBGSHdsJb5MYmKnvkEISJFw5BMt2Z2KatMGOcmQ8KfZdKBuCnNcoDUPXJqzySTMKOgv2byRvHJsUBRw+I1z+e7jLvetauDjXca9n4lOwsNGUtZ9uScRfr6rE39/xdMj25cKwly983/6/sLX8Xa9HzNN2VySVepKJ2IlTIhTE3IEONk4ZTeOa4c6VkfYk6GtWOx4SmueAMhVWNo9h2BjqkubVeDlVhBduhNXLzuV9DjPv6bhoA+0kVsrr1sOyq2gA44GnGH2uZUjgP6xGQgUiGoX1nL6j6m/4sGLVc/r71QZyDigyoyNjeQWbgJcgkJEPBI+g03Zb0J3QvvGSxoVRvLo6g2+Amag1V0Ij++6UvSfHIGVKJ3W+uQ5osVVEuWILSDfiJS8JxtFamsqqDDt/arl5HtXogMi5nmqQmQ8VFWI+E7YXn/KUdj4EQmWCVIxv2vQ7VdzeiK5CsZKaQgAewCOfZHQ/Ih+fdJldhcdWGirckALvbDdPBAQ3u4XU/RMjwWeRiJEtZ9V5lWEGoMb94/W751wt+gXg7cvTdmWDW0DjQYTrSKhrQt1dux2rEWXIQ8fTr5/2DzMhfLBdMu1qe2PZHyXXlQYvyyapdT0s5sjjzQaBlDbuQh4D1H4AtgBwD9v/Diz6P5K48RarucIQGaDIiJGNGpxcmz5s51hzPZKQwzx67WPZgFyUEEoFJ+HOAW+aTOBDKXDLBqPzEhXoktaWB+xhSyR/o9McnOToYH3yufmIhUVE1pkrK8Ad/dZl3ek/XD8b+9W4mAiEBiCqkVUhYnLQklluX3iPzi85CKK4Og8asOx8cL5vhsX8B3L5e00yZV88w4C3L7tL8dOOQEvnkvDvk9pX/KcunXSZTRs9CklCxjEofK4XZhZKbmg8nFexFwEwHYDrW7vuRRfebNf8l+7Gs1tiNhnDUWQTgNla8KXVYiuzGBKL/gGHCOSONicHZZqxZQk8Gxk+RiVCHCzOKNCORyjoJkHnhbaEGXffADL4YcMBEmN4QZmrDOn2sLkyDWt2KVFjihQzu3fJV8vj632DzjqdkSxlUUhAspyeZNOuk6s6oiVW4lyDHxowOpzIgAjMipFTLi5GDsHTs+QiztuEc8vPxx2y5l0r+T/6MXYT215XoeWYFMgGGZhLWw8nzJQ9KHfIbpsCcuvmsr2AsHFCLMSZgrh4s6T6MkOquw3CUwbyi9hOGn4S5GG1BRkREzi6+DESaLi3QECh1yXi2HF4nj777O+xL+DfdDo33fXTR3Vj6fKk0wvQLw6HoAYM5gFj8KmT/VTaXgyFAI0AOSRjz5ONnfRkbmVwHphLiozq/zIoHzCzihjjSK/gwQ2Ud6bd1agGSd5JRL21+wzJgziEcSk1ndoEZe/ZzMMrgtNK1J5jU6mPFd2tnPRBgcBUC5lIR5kjDOngtyFQ7gkViFSr28QsZA68TxZB+fBbecy18FqeVAWDiZSePkLsv/pU8vOmn8uaevyFZB0tMKf5QYmAaAYdfpoyYjjz3O5GZdR7UUe5Si9VdGKAAYutXTLtJzsNaeRKrB0ROlZ3aBe31ZmTovbTrESwCeRiVxeAvSEHyRqO8feBZ+BtmsAX8J4z8jxAfVP4IpIYbse8APMs5yAuYPuIsvaZiy/zST8LPmHAGJM/k/NnIKYC6jHXfjE9XNJRBg3gXkzcJ8GPxjIbLgA8ChmIRPH+TiVDzmJA/U76w4h6sWPuRLjZhviThY15+CpJb2jubkCkMLzzuVXImUaNezPOjBY/wGrfP0j5h0pqsiqO3fPrsr2E9e6usOfw6fFtgSBgbZmM6MOAh4HtS3jS5dvZn5ZG1P5G9zfuQbJMjn136TaxhL1RT66KpN0pqao48ipV1B5rgIIP0Z1sxN9gbGEYaEqCWTr5SPop1FkwXZmx8MpjGrSu/IX9cdR+cuvW4z+R3uBCizUSefhuYPEsa0mv/+bwfS3HOz+X1nU/D5sc+Aeigy8MxpUwWhCMnQlO4VZZj23IKGCtrj8KKKwajLhI/bsRvMv7jljjzpkk3AWs29tZtB1NLRk/gyEU/pmMxVRZMPmMCnmiuH7eFPl8Y9K271cYCt95Vs0G+9eytCN9gaSqIqur9pQAACCRJREFUqxU22eWzPyK3Lfsu8BqVUqy8a+9sANc2C3Z8sMPGQB1j3rilxlu9pbTjhh0hbDjJTTuCIMSRkI5ZydwvvvvkN1PZEEUZNljYW7tOahtLYUOGsTFmrozJm4SFJ/OwjiBDB5MSm+X+1V+TNfteAmEkqxf4prO/JFdM/YQOlgnlmZaYWfgfz3xMdlZtRR1purT3Aixm4a67lrrP7xhSig9hkw76EvhyEp7zwQtcjBVl6KSqitpwl48YJkkMDKceG1vUt1WqPUuJ4wq7YCrkSEsMiTFYCko1MxZ1YzXgFGSpmd1/uzIAVmkcjk7NtttWthZ28R7MX+AAIdExWNI7BTggAyrDeXMvJDtwUZw+WVLiDLoFRMQVksx5iGIvBZ8TsXusQ2D7phiccNXgxvLXdaOVemTuMWU6BfsTTkQm2/KJV0i+bzQy3jbJ7zd8R5aOuQILdT4DIoYmhLGPgbJYXwcWvezCkmpqUX6YVtTM8kHs0wpnY15Mwj1MhjHtWX2rw2YumyrfxPoMOHmBu2wsahpXOEMmZs5E5AfjG9dSiJt6pH/vRBp3JfYlDCFXIxVMpRhmy0Qw2nSEBsl4NaUX97I0Ywyq2iqAI8IIpgmThismSdC0BHorOvcAYnV7ufzPK3di45XNiGikYA745V8vvV+W9Njko7c6+vPcoBK/RXjNwSr53nP/qKvnmO4YBcHQ3vv6B34p0/OXHAkD9eyoEg9PHplcPe/oekwCixN+j8Hg5CAshmi7PhP/jetUcelo48SgI+6fn7wWttoO7LCTCg9zi3xu2Vflujn/oJNCJynq470t0Ga+/uwnpBRJHFzcw3X9F864Tv5pxb06SQi69iPOVHq2bvSiuNbS46JKBW0F13v0qcetJz8Ebrjxxwn3F1QEdm+ImDPq6smb4B3sKx4BLrvXYz3NcSCh08SgBKQzlXd2HR86w+jP6Mn0rToYkuVD1nU+ywVORn0+tl1z3YQJFTx8WGtDrDqPfhM+1oW5EK+KY8RCqd21oFVoR+zssW3yPiu8WYKQ8bee+QKEFbQLLDmmFvbNy/+kKwwJG+fRYJRBU/utTh1EGuv9q/8NIbNtGncnkXXAk/qReZ9Rwudkof2pk0aR3AURxyEYIor3mzYstAGFxxkESnPWapiAdT+HjsU8x80nOQX1DDQV7szjaeCGIm5VF1/e9Sg8t2MgefCSEYRtuLNwDdJ0H9/8KzkMwvdyjTvhhwY3HhuJsBj4jkp100erXb0FMHefUOas+bSYlT7HSdataI/ibRicnaguIoD+FWWDMF2OFutZTsFjVVmLwPR+wMDnWcxTnPfd4VctBBLWiniYMTH1Kj5wPwmffYJLUGtzqEQ+Wo966Tm+yrTZWpe+Y4zJWPhnFf0NYmX9fMYU6xlc5fiDmbBwiiiMik8+cbRojbiBCUtdixI9brSYAK/xOe17L3OOfadHhP1ohl/id2vuldZgEzYPwc7JWIl61rgLlfCtXZm6tjWQvweP+IFcIrkMW0PtrtwEexheYNi5QSw+uWr2J+UTC76sGDSTwwyIUs577D2f6zoB3stjOglOeCNsOgwcJ/wyrOPefGAdnIlc3gnveHMFvOP/KiNzRqmdHIR0quNiFH+7Lt5gtKENGkJx7hRZqWu3rT4dbdD09eikPXrlxL+O/1xfMaAGBgA7jo1Jwugh3bpBRsLoQnTdrnU50JHpQRS9MQlOANODXnASH99ernRpqfvP3trtfsfRIwun77n+Hrg53nNkJ3Q60pFZgnccPLT+JzB5t2Djk1wkFbVgwdpYuYBLw8E93gsuj0L8/n8NGvGTgMiFl4+/WhqX1ctv3v42djkZJ9fM/wx2yrkJ1+gzYfjqKMd//917/zWolx2wXYh15HvrtsgL2x4H8dNJx0UmDqlCohAXnqB7akYwfyAMM6YVnv6x2PTh9nO/g40rCnCP2e76/UN0OtdwPBIann2mn4Am4QEsX/712q9jLUYJdp/C3gEu7AQV64APJSTXYv7nJ2ODzvi9g9nTQbf5yeHoNeUuu0XYKbcgZQyOST38l5iDT+7N3PcINmp6dc+T2IzzEezFtl+CcK5xjz4FHp/gCZD6SdgtJxvbXK2QK2feit1l4IFGfzWEmZjdG8z5dka1RWFHDae5s07u/usNSAs/DC0xGSFgbuThkevn3CY3LrwDOMH8H4K5P6jEz5HnCyFI62bRAsiKC21INYlcADCHh0op/VaMWJQh7MS8/CZEJMi1eZVrB0Yix39s9lR4zbNxBn80G2j424SfyCM8YLBZGt/Lex7GRqT/gVB2FrYNn4kdgT+DHJJzdX70NIEGDJgeFQ868Zv26QACKYEgTmhT9gB2qA+VBSjcJ2dWxpmH/vWwdYe6D3b7Q4ABSA4/9hBguncBFpiNwg7Fxgw2NDBUkmGIiH8IBqAfm7SYALUBU6xfRryT4BPVhLEgtr8HDwMaFVChYRyr1AY5h6zozeBB0r0lm/i748M+sjEwYBigCUB113j1h94OtIl/wIbartjGQGJj4OTGa2LDb0NnY8DGwCliwCb+U0Sc/ZiNgeGOAZv4h/sI2vDbGDhFDNjEf4qIsx+zMTDcMWAT/3AfQRt+GwOniAGb+E8RcfZjNgaGOwZs4h/uI2jDb2PgFDFgE/8pIs5+zMbAcMeATfzDfQRt+G0MnCIGbOI/RcTZj9kYGO4YsIl/uI+gDb+NgVPEgE38p4g4+zEbA8MdAzbxD/cRtOG3MXCKGLCJ/xQRZz9mY2C4Y8Am/uE+gjb8NgZOEQP/D5cpQg1pGadKAAAAAElFTkSuQmCC;" vertex="1" parent="1">
          <mxGeometry x="282.25" y="87.35" width="44" height="26.4" as="geometry" />
        </mxCell>
        <mxCell id="2ibzQ1A0kpAbdHHjTMDV-36" style="edgeStyle=orthogonalEdgeStyle;rounded=1;orthogonalLoop=1;jettySize=auto;html=1;entryX=0.374;entryY=1.2;entryDx=0;entryDy=0;entryPerimeter=0;strokeColor=#383838;" edge="1" parent="1" source="2ibzQ1A0kpAbdHHjTMDV-17" target="nNgreJWrxfN4fD4Ae-On-50">
          <mxGeometry relative="1" as="geometry" />
        </mxCell>
        <mxCell id="2ibzQ1A0kpAbdHHjTMDV-17" value="" style="shape=image;html=1;verticalAlign=top;verticalLabelPosition=bottom;labelBackgroundColor=#ffffff;imageAspect=0;aspect=fixed;image=https://cdn3.iconfinder.com/data/icons/inficons/128/bitbucket.png" vertex="1" parent="1">
          <mxGeometry x="282.25" y="248" width="34.5" height="34.5" as="geometry" />
        </mxCell>
        <mxCell id="2ibzQ1A0kpAbdHHjTMDV-19" value="templates" style="text;html=1;resizable=0;autosize=1;align=center;verticalAlign=middle;points=[];fillColor=none;strokeColor=none;rounded=0;dashed=1;labelBorderColor=none;fontSize=6;" vertex="1" parent="1">
          <mxGeometry x="276.75" y="282.5" width="40" height="10" as="geometry" />
        </mxCell>
        <mxCell id="2ibzQ1A0kpAbdHHjTMDV-22" value="pulls helm templates" style="text;html=1;resizable=0;autosize=1;align=center;verticalAlign=middle;points=[];fillColor=none;strokeColor=none;rounded=0;shadow=0;dashed=1;dashPattern=1 2;labelBorderColor=none;fontSize=5;rotation=270;" vertex="1" parent="1">
          <mxGeometry x="240" y="230" width="60" height="10" as="geometry" />
        </mxCell>
        <mxCell id="2ibzQ1A0kpAbdHHjTMDV-30" style="edgeStyle=orthogonalEdgeStyle;rounded=1;orthogonalLoop=1;jettySize=auto;html=1;strokeColor=#383838;" edge="1" parent="1" source="2ibzQ1A0kpAbdHHjTMDV-26" target="nNgreJWrxfN4fD4Ae-On-59">
          <mxGeometry relative="1" as="geometry" />
        </mxCell>
        <mxCell id="2ibzQ1A0kpAbdHHjTMDV-26" value="" style="sketch=0;outlineConnect=0;fontColor=#232F3E;gradientColor=none;fillColor=#D45B07;strokeColor=none;dashed=0;verticalLabelPosition=bottom;verticalAlign=top;align=center;html=1;fontSize=12;fontStyle=0;aspect=fixed;pointerEvents=1;shape=mxgraph.aws4.lambda_function;" vertex="1" parent="1">
          <mxGeometry x="460" y="162" width="30" height="30" as="geometry" />
        </mxCell>
        <mxCell id="2ibzQ1A0kpAbdHHjTMDV-28" value="successful scan" style="text;html=1;resizable=0;autosize=1;align=center;verticalAlign=middle;points=[];fillColor=none;strokeColor=none;rounded=0;shadow=0;dashed=1;dashPattern=1 2;labelBorderColor=none;fontSize=5;rotation=0;" vertex="1" parent="1">
          <mxGeometry x="420" y="162" width="50" height="10" as="geometry" />
        </mxCell>
        <mxCell id="2ibzQ1A0kpAbdHHjTMDV-31" value="deploys pod" style="text;html=1;resizable=0;autosize=1;align=center;verticalAlign=middle;points=[];fillColor=none;strokeColor=none;rounded=0;shadow=0;dashed=1;dashPattern=1 2;labelBorderColor=none;fontSize=5;rotation=0;" vertex="1" parent="1">
          <mxGeometry x="485" y="163" width="40" height="10" as="geometry" />
        </mxCell>
        <mxCell id="2ibzQ1A0kpAbdHHjTMDV-33" value="AWS Cloud" style="points=[[0,0],[0.25,0],[0.5,0],[0.75,0],[1,0],[1,0.25],[1,0.5],[1,0.75],[1,1],[0.75,1],[0.5,1],[0.25,1],[0,1],[0,0.75],[0,0.5],[0,0.25]];outlineConnect=0;gradientColor=none;html=1;whiteSpace=wrap;fontSize=12;fontStyle=0;container=1;pointerEvents=0;collapsible=0;recursiveResize=0;shape=mxgraph.aws4.group;grIcon=mxgraph.aws4.group_aws_cloud;strokeColor=#759DCF;fillColor=none;verticalAlign=top;align=left;spacingLeft=30;fontColor=#232F3E;dashed=1;" vertex="1" parent="1">
          <mxGeometry x="365" y="87.35" width="315" height="192.65" as="geometry" />
        </mxCell>
        <mxCell id="2ibzQ1A0kpAbdHHjTMDV-38" style="edgeStyle=orthogonalEdgeStyle;rounded=1;orthogonalLoop=1;jettySize=auto;html=1;strokeColor=#383838;" edge="1" parent="1" source="2ibzQ1A0kpAbdHHjTMDV-1">
          <mxGeometry relative="1" as="geometry">
            <mxPoint x="280" y="179" as="targetPoint" />
          </mxGeometry>
        </mxCell>
        <mxCell id="2ibzQ1A0kpAbdHHjTMDV-1" value="" style="shape=image;html=1;verticalAlign=top;verticalLabelPosition=bottom;labelBackgroundColor=#ffffff;imageAspect=0;aspect=fixed;image=https://cdn3.iconfinder.com/data/icons/inficons/128/bitbucket.png" vertex="1" parent="1">
          <mxGeometry x="189.5" y="153.25" width="50.5" height="50.5" as="geometry" />
        </mxCell>
      </root>
    </mxGraphModel>
  </diagram>
</mxfile>
